<?xml version="1.0" standalone="no"?><!DOCTYPE svg PUBLIC "-//W3C//DTD SVG 1.1//EN" "http://www.w3.org/Graphics/SVG/1.1/DTD/svg11.dtd"><svg t="1747394756969" class="icon" viewBox="0 0 1024 1024" version="1.1" xmlns="http://www.w3.org/2000/svg" p-id="2211" xmlns:xlink="http://www.w3.org/1999/xlink" width="24" height="24"><path d="M381.10967787 494.2451616H131.71612907c-39.08817173 0-70.46881707-31.38064533-70.46881707-70.46881707V174.38279573c0-38.53763413 31.93118293-70.46881707 70.46881707-70.46881707h249.3935488c39.08817173 0 70.46881707 31.38064533 70.46881707 70.46881707v249.3935488c0 39.08817173-31.38064533 70.46881707-70.46881707 70.46881707zM381.10967787 962.752688H131.71612907c-39.08817173 0-70.46881707-31.38064533-70.46881707-70.46881707v-249.3935488c0-39.08817173 31.38064533-70.46881707 70.46881707-70.46881707h249.3935488c39.08817173 0 70.46881707 31.38064533 70.46881707 70.46881707v249.3935488c0 38.53763413-31.38064533 70.46881707-70.46881707 70.46881707zM849.61720427 962.752688h-249.3935488c-39.08817173 0-70.46881707-31.38064533-70.46881707-70.46881707v-249.3935488c0-39.08817173 31.38064533-70.46881707 70.46881707-70.46881707h249.3935488c39.08817173 0 70.46881707 31.38064533 70.46881707 70.46881707v249.3935488c0 38.53763413-31.93118293 70.46881707-70.46881707 70.46881707zM937.152688 249.8064512l-162.9591392-162.9591392c-27.52688213-27.52688213-72.12042987-27.52688213-99.647312 0L511.58709654 249.8064512c-27.52688213 27.52688213-27.52688213 72.12042987 0 99.647312l162.95914026 162.95914026c27.52688213 27.52688213 72.12042987 27.52688213 99.647312 0l162.9591392-162.95914026c27.52688213-28.07741973 27.52688213-72.67096747 0-99.647312z m-198.19354773 187.18279573c-7.7075264 7.7075264-20.92042987 7.7075264-28.62795733 0l-123.32042987-123.32042987c-7.7075264-7.7075264-7.7075264-20.92042987 0-28.62795733l123.32042987-123.32042987c7.7075264-7.7075264 20.92042987-7.7075264 28.62795733 0l123.32042987 123.32042987c7.7075264 7.7075264 7.7075264 20.92042987 0 28.62795733l-123.32042987 123.32042987z" p-id="2212"></path></svg>