<svg width="14" height="14" viewBox="0 0 14 14" fill="none" xmlns="http://www.w3.org/2000/svg">
<path fill-rule="evenodd" clip-rule="evenodd" d="M7.58337 0.875V2.36944C9.88539 2.6565 11.6667 4.62022 11.6667 7C11.6667 8.27134 11.1576 9.42492 10.3333 10.266L9.50007 9.44946C10.1192 8.8176 10.5 7.95385 10.5 7C10.5 5.26575 9.23871 3.8261 7.58337 3.54839V4.95833L4.86115 2.91667L7.58337 0.875ZM4.50001 4.55053C3.88084 5.1824 3.50004 6.04615 3.50004 7C3.50004 8.73425 4.76137 10.1739 6.41671 10.4516V8.75L9.13893 10.7917L6.41671 12.8333V11.6306C4.11469 11.3435 2.33337 9.37978 2.33337 7C2.33337 5.72866 2.84253 4.57508 3.66673 3.73398L4.50001 4.55053Z" fill="currentColor"/>
</svg>
