<svg width="14" height="14" viewBox="0 0 14 14" fill="none" xmlns="http://www.w3.org/2000/svg">
<path d="M6.4167 12.5417C5.03835 12.0262 3.88868 10.2623 3.31328 9.22915C3.06484 8.78307 3.19571 8.23512 3.59442 7.91615C4.03883 7.56064 4.67948 7.59611 5.08192 7.99855L5.5417 8.45833V5.10417C5.5417 4.70146 5.86817 4.375 6.27087 4.375C6.67358 4.375 7.00004 4.70146 7.00004 5.10417V6.85417C7.00004 6.45146 7.3265 6.125 7.7292 6.125C8.13191 6.125 8.45837 6.45146 8.45837 6.85417V7.4375C8.45837 7.0348 8.78483 6.70833 9.18754 6.70833C9.59024 6.70833 9.9167 7.0348 9.9167 7.4375V8.02083C9.9167 7.61813 10.2432 7.29167 10.6459 7.29167C11.0486 7.29167 11.375 7.61813 11.375 8.02083V10.3157C11.375 10.6278 11.2979 10.9363 11.1179 11.1915C10.8194 11.6147 10.2827 12.2598 9.62504 12.5417C8.6042 12.9792 7.69132 13.0183 6.4167 12.5417Z" fill="currentColor" stroke-linecap="round" stroke-linejoin="round"/>
<path d="M8.45829 3.49996C8.45829 2.21129 7.41363 1.16663 6.12496 1.16663C4.83629 1.16663 3.79163 2.21129 3.79163 3.49996C3.79163 3.70138 3.81715 3.89686 3.86513 4.08329M3.86513 4.08329C3.89088 4.18328 3.92305 4.28063 3.96123 4.37496L3.86513 4.08329Z" stroke="currentColor" stroke-linecap="round" stroke-linejoin="round"/>
</svg>
