<svg width="14" height="14" viewBox="0 0 14 14" fill="none" xmlns="http://www.w3.org/2000/svg">
<path d="M7.00004 5.83333C8.12762 5.83333 9.04171 4.91925 9.04171 3.79167C9.04171 2.66409 8.12762 1.75 7.00004 1.75C5.87246 1.75 4.95837 2.66409 4.95837 3.79167C4.95837 4.91925 5.87246 5.83333 7.00004 5.83333Z" fill="#4E5969" stroke="#4E5969" stroke-linecap="round" stroke-linejoin="round"/>
<path d="M1.75 11.9V12.25H12.25V11.9C12.25 10.5932 12.25 9.93978 11.9957 9.44065C11.772 9.00161 11.415 8.64464 10.976 8.42093C10.4768 8.16663 9.82345 8.16663 8.51667 8.16663H5.48333C4.17655 8.16663 3.52316 8.16663 3.02403 8.42093C2.58498 8.64464 2.22802 9.00161 2.00432 9.44065C1.75 9.93978 1.75 10.5932 1.75 11.9Z" fill="#4E5969" stroke="#4E5969" stroke-linecap="round" stroke-linejoin="round"/>
</svg>
